
<svg class="hidden" xmlns="http://www.w3.org/2000/svg">

<symbol viewBox="0 0 1024 1024" id="phone">
<path d="M768 640v99.6c0 8.1-2.1 14.2-8.2 20.3-6.2 6.2-12.1 8.1-20.2 8.1-120.1-2.1-260.1-40.3-351.6-131.8S258.1 404.5 256 284.4c0-8.1 2-14.1 8.1-20.2s12.1-8.2 
20.3-8.2H384l25.6 153.6-47.8 62.1c14.2 40.3 42.7 83.1 75.1 115.6 32.5 32.5 75.1 60.7 115.3 74.9l62.1-47.8L768 640z"/></symbol>


<symbol viewBox="0 0 1024 1024" id="notifications">
<path d="M439.9 716.8h144.2C573.5 746.6 545.4 768 512 768s-61.5-21.4-72.1-51.2zm302.5-102.4C706.5 585.1 640 531.2 640 409.6v-29.3c0-42-23-63-77.1-70.1.1-1 
.3-2 .3-3.1 0-28.3-22.9-51.2-51.2-51.2s-51.2 22.9-51.2 51.2c0 1 .2 2 .3 3.1-54.1 7.1-77.1 28.1-77.1 70.1v29.3c0 121.6-66.5 175.5-102.4 204.8.4.4 
0 51.2 0 51.2h460.8s-.4-50.8 0-51.2z"/></symbol>


<symbol viewBox="0 0 1024 1024" id="gift">
<path d="M256 614.4h230.4V768H256V614.4zm512-204.8v153.6H537.6V409.6h-51.2v153.6H256V409.6h91.5c-8.8-15.1-14.2-32.5-14.2-51.2 0-56.6 45.8-102.4 
102.4-102.4 30.8 0 58 13.8 76.8 35.3 18.8-21.5 46-35.3 76.8-35.3 56.6 0 102.4 45.8 102.4 102.4 0 18.7-5.4 36.1-14.2 
51.2H768zm-281.1-51.2c0-28.3-22.9-51.2-51.2-51.2-28.3 0-51.2 22.9-51.2 51.2 0 28.3 22.9 51.2 51.2 51.2 28.3 0 51.2-22.9 51.2-51.2zm153.6 
0c0-28.3-22.9-51.2-51.2-51.2-28.3 0-51.2 22.9-51.2 51.2 0 28.3 22.9 51.2 51.2 51.2 28.3 0 51.2-22.9 51.2-51.2zM537.6 
768H768V614.4H537.6V768z"/></symbol>


<symbol viewBox="0 0 1024 1024" id="corporate">
<path d="M640 455.1c0-33.8-13.4-64.4-34.9-87.3 11.6-16.9 30.9-27.9 52.9-27.9 35.4 0 64.1 28.7 64.1 64.1s-28.7 64.1-64.1 64.1c-6.7 
0-13-1.3-19-3.2.3-3.2 1-6.4 1-9.8zm-128 89.6c49.5 0 89.6-40.1 89.6-89.6s-40.1-89.6-89.6-89.6-89.6 40.1-89.6 89.6 40.1 89.6 89.6 
89.6zm0 54.7c-109.7 0-153.6 21.9-153.6 87.8v87.9h307.2v-87.9c0-66.3-43.9-87.8-153.6-87.8zm-116-91c-9.2-.6-19-1-30-1-78.5 0-110 
15.7-110 62.8v76.9h69.4c16.7-57.8 70.4-76.7 120.5-83-21.8-13.2-39.2-32.5-49.9-55.7zm-30-40.2c6.7 0 13-1.3 19-3.2-.3-3.3-1-6.5-1-9.9 
0-33.8 13.4-64.4 34.9-87.3-11.6-16.8-30.9-27.9-52.9-27.9-35.4 0-64.1 28.7-64.1 64.1s28.6 64.2 64.1 64.2zm292 39.1c-11 0-20.8.4-30 
1.1-10.7 23.2-28.2 42.5-49.9 55.7 50.1 6.2 103.8 25.2 120.5 83H768v-76.9c0-47.5-31.4-62.9-110-62.9z"/></symbol>


<symbol viewBox="0 0 32 32" id="home">
    <path d="M30.488 13.431l-2.738-2.347v-7.064c0-0.414-0.336-0.75-0.75-0.75s-0.75 0.336-0.75 0.75v0 5.778l-9.762-8.367c-0.13-0.112-0.301-0.18-0.488-0.18s-0.358 0.068-0.489 0.181l0.001-0.001-14 12c-0.161 0.138-0.262 0.342-0.262 0.569v16c0 0.414 0.336 0.75 0.75 0.75h28c0.414-0 0.75-0.336 0.75-0.75v0-16c-0-0.227-0.101-0.431-0.261-0.569l-0.001-0.001zM29.25 29.25h-26.5v-14.905l13.25-11.356 13.25 11.356zM10.584 14.043c-0.75 0.729-1.215 1.747-1.215 2.873 0 1.176 0.507 2.233 1.314 2.966l0.003 0.003 4.682 5.191c0.138 0.153 0.336 0.248 0.557 0.248s0.419-0.095 0.556-0.247l0.001-0.001 4.67-5.178c0.906-0.768 1.477-1.907 1.477-3.18 0-1.119-0.442-2.135-1.16-2.883l0.001 0.001c-0.734-0.718-1.739-1.161-2.848-1.161-1.039 0-1.987 0.389-2.706 1.029l0.004-0.004c-0.673-0.541-1.538-0.869-2.48-0.869-1.12 0-2.132 0.464-2.854 1.21l-0.001 0.001zM16.454 15.23c0.477-0.665 1.247-1.093 2.118-1.093 1.435 0 2.598 1.163 2.598 2.598 0 0.871-0.429 1.642-1.087 2.114l-0.008 0.005-0.025 0.027-4.125 4.574-4.151-4.604c-0.553-0.503-0.899-1.224-0.9-2.027v-0c0.084-1.367 1.189-2.451 2.558-2.499l0.005-0c0.778 0.025 1.471 0.368 1.957 0.903l0.002 0.002c0.136 0.136 0.323 0.22 0.53 0.22s0.395-0.084 0.53-0.22v0z"></path>
</symbol>

<symbol id="gallery" viewBox="0 0 16 16">
    <path id="Path_62" d="M-9.5,4h-1.154L-11.789.973A1.506,1.506,0,0,0-13.193,0h-3.614a1.506,1.506,0,0,0-1.4.973L-19.346,4H-20.5A2.5,2.5,0,0,0-23,6.5v7A2.5,2.5,0,0,0-20.5,16h11A2.5,2.5,0,0,0-7,13.5v-7A2.5,2.5,0,0,0-9.5,4Zm-7.775-2.675A.5.5,0,0,1-16.807,1h3.614a.5.5,0,0,1,.468.325l1,2.675h-6.556ZM-8,13.5A1.5,1.5,0,0,1-9.5,15h-11A1.5,1.5,0,0,1-22,13.5v-7A1.5,1.5,0,0,1-20.5,5h11A1.5,1.5,0,0,1-8,6.5ZM-15,6a4,4,0,0,0-4,4,4,4,0,0,0,4,4,4,4,0,0,0,4-4A4,4,0,0,0-15,6Zm0,7a3,3,0,0,1-3-3,3,3,0,0,1,3-3,3,3,0,0,1,3,3A3,3,0,0,1-15,13Zm.5-4.5A.5.5,0,0,1-15,9a1,1,0,0,0-1,1,.5.5,0,0,1-.5.5A.5.5,0,0,1-17,10a2,2,0,0,1,2-2A.5.5,0,0,1-14.5,8.5Z" transform="translate(23)"></path>
</symbol>

<symbol viewBox="0 0 24 24" id="align-arrow-left">
    <path d="M21 21L21 3" stroke="#323232" stroke-width="2" stroke-linecap="round" stroke-linejoin="round"></path>
    <path d="M8 12L17 12" stroke="#323232" stroke-width="2" stroke-linecap="round" stroke-linejoin="round"></path>
    <path d="M11 9L9.41421 10.5858C8.63317 11.3668 8.63316 12.6332 9.41421 13.4142L11 15" stroke="#323232" stroke-width="2" stroke-linecap="round" stroke-linejoin="round"></path>
</symbol>

<symbol viewBox="0 0 24 24" id="align-arrow-down">
    <path d="M21 3L3 3" stroke="#323232" stroke-width="2" stroke-linecap="round" stroke-linejoin="round"></path>
    <path d="M12 16L12 7" stroke="#323232" stroke-width="2" stroke-linecap="round" stroke-linejoin="round"></path>
    <path d="M9 13L10.5858 14.5858C11.3668 15.3668 12.6332 15.3668 13.4142 14.5858L15 13" stroke="#323232" stroke-width="2" stroke-linecap="round" stroke-linejoin="round"></path>
</symbol>

<symbol xmlns="http://www.w3.org/2000/svg" viewBox="0 0 24 24" id="tumblr">
    <path fill-rule="evenodd" clip-rule="evenodd" d="M6 2C3.79086 2 2 3.79086 2 6V18C2 20.2091 3.79086 22 6 22H18C20.2091 22 22 20.2091 22 18V6C22 3.79086 20.2091 2 18 2H6ZM4 6C4 4.89543 4.89543 4 6 4H18C19.1046 4 20 4.89543 20 6V18C20 19.1046 19.1046 20 18 20H6C4.89543 20 4 19.1046 4 18V6ZM12 7.5C12 6.94772 11.5523 6.5 11 6.5C10.4477 6.5 10 6.94772 10 7.5V9H9C8.44772 9 8 9.44772 8 10C8 10.5523 8.44772 11 9 11H10V13.8907C10 16.3351 12.4421 18.0266 14.7305 17.1672L15.3458 16.9362C15.8628 16.742 16.1246 16.1655 15.9304 15.6484C15.7362 15.1314 15.1597 14.8697 14.6427 15.0638L14.0274 15.2949C13.0466 15.6632 12 14.9383 12 13.8907V11H14.5C15.0523 11 15.5 10.5523 15.5 10C15.5 9.44772 15.0523 9 14.5 9H12V7.5Z" fill="#000000"></path>
</symbol>

<symbol xmlns="http://www.w3.org/2000/svg" viewBox="0 0 24 24" id="twitter">
    <path fill-rule="evenodd" clip-rule="evenodd" d="M14.8486 5.65845C13.1442 5.65845 11.7626 7.0401 11.7626 8.74446C11.7626 8.95304 11.7831 9.15581 11.822 9.35119C11.8846 9.66589 11.7924 9.99153 11.5741 10.2267C11.3558 10.4619 11.0379 10.578 10.7194 10.5389C8.51116 10.268 6.50248 9.35556 4.88498 7.9954C4.91649 8.59732 5.12515 9.23671 5.57799 9.90654L6.25677 10.9106L5.14211 11.3863L4.92704 11.4781C5.0869 11.6609 5.2791 11.8487 5.49369 12.0332C5.73717 12.2425 5.97247 12.4165 6.14726 12.5381C6.23408 12.5985 6.30452 12.645 6.35171 12.6755C6.37527 12.6907 6.39294 12.7018 6.40383 12.7086L6.41495 12.7155L6.41519 12.7157L6.41551 12.7159L6.41578 12.7161L6.41619 12.7163L6.41647 12.7165L7.96448 13.655L6.34397 14.4653C6.26374 14.5054 6.18367 14.5412 6.10393 14.573C6.42924 14.8471 6.82517 15.0995 7.2464 15.2986L8.63623 15.9556L7.47226 16.9598C6.8369 17.508 6.19778 17.9166 5.36946 18.1326C6.59681 18.7875 8.00315 19.1596 9.49941 19.1596C14.3045 19.1596 18.1746 15.325 18.1746 10.6256V10.1059L18.5998 9.80721C19.2636 9.34107 19.7329 8.71068 20.0689 7.99004H18.5398H17.9084L17.637 7.41994C17.1401 6.37633 16.0772 5.65845 14.8486 5.65845ZM3.56882 12.9581C3.38031 13.174 3.29093 13.4642 3.33193 13.7553C3.44474 14.5563 3.92441 15.2462 4.45444 15.7728C4.59838 15.9158 4.75232 16.0531 4.91396 16.184C4.88926 16.1909 4.86437 16.1975 4.83925 16.2038C4.35789 16.3243 3.70926 16.3494 2.62755 16.2434C2.20934 16.2024 1.81014 16.4273 1.62841 16.8062C1.44668 17.185 1.5212 17.6371 1.81492 17.9376C3.75693 19.9245 6.48413 21.1596 9.49941 21.1596C15.212 21.1596 19.8978 16.7239 20.1628 11.126C21.4521 10.0429 22.0976 8.57673 22.4458 7.24263C22.5241 6.94292 22.459 6.62387 22.2696 6.37873C22.0803 6.13359 21.788 5.99004 21.4783 5.99004H19.1247C18.2201 4.58853 16.6437 3.65845 14.8486 3.65845C12.1796 3.65845 9.99072 5.71435 9.7793 8.32892C7.91032 7.84456 6.2705 6.78758 5.05863 5.35408C4.83759 5.09261 4.49814 4.9624 4.15894 5.00897C3.81974 5.05554 3.52794 5.27241 3.38555 5.58378C2.78087 6.90597 2.66434 8.43104 3.34116 9.98046L3.10746 10.0802C2.64466 10.2777 2.40073 10.7884 2.5379 11.2725C2.72276 11.925 3.14129 12.5011 3.56882 12.9581Z" fill="#000000"></path>
</symbol>

<symbol xmlns="http://www.w3.org/2000/svg" viewBox="0 0 24 24" id="instagram">
    <path fill-rule="evenodd" clip-rule="evenodd" d="M2 6C2 3.79086 3.79086 2 6 2H18C20.2091 2 22 3.79086 22 6V18C22 20.2091 20.2091 22 18 22H6C3.79086 22 2 20.2091 2 18V6ZM6 4C4.89543 4 4 4.89543 4 6V18C4 19.1046 4.89543 20 6 20H18C19.1046 20 20 19.1046 20 18V6C20 4.89543 19.1046 4 18 4H6ZM12 9C10.3431 9 9 10.3431 9 12C9 13.6569 10.3431 15 12 15C13.6569 15 15 13.6569 15 12C15 10.3431 13.6569 9 12 9ZM7 12C7 9.23858 9.23858 7 12 7C14.7614 7 17 9.23858 17 12C17 14.7614 14.7614 17 12 17C9.23858 17 7 14.7614 7 12ZM17.5 8C18.3284 8 19 7.32843 19 6.5C19 5.67157 18.3284 5 17.5 5C16.6716 5 16 5.67157 16 6.5C16 7.32843 16.6716 8 17.5 8Z" fill="#000000"></path>
</symbol>

<symbol xmlns="http://www.w3.org/2000/svg" viewBox="0 0 24 24" id="facebook">
    <path fill-rule="evenodd" clip-rule="evenodd" d="M2 6C2 3.79086 3.79086 2 6 2H18C20.2091 2 22 3.79086 22 6V18C22 20.2091 20.2091 22 18 22H6C3.79086 22 2 20.2091 2 18V6ZM6 4C4.89543 4 4 4.89543 4 6V18C4 19.1046 4.89543 20 6 20H12V13H11C10.4477 13 10 12.5523 10 12C10 11.4477 10.4477 11 11 11H12V9.5C12 7.567 13.567 6 15.5 6H16.1C16.6523 6 17.1 6.44772 17.1 7C17.1 7.55228 16.6523 8 16.1 8H15.5C14.6716 8 14 8.67157 14 9.5V11H16.1C16.6523 11 17.1 11.4477 17.1 12C17.1 12.5523 16.6523 13 16.1 13H14V20H18C19.1046 20 20 19.1046 20 18V6C20 4.89543 19.1046 4 18 4H6Z" fill="#000000"></path>
</symbol>








</svg>